HIERARCHY
ROOT Hips
{
  OFFSET 5.84602e-005 68.8428 3.50346
  CHANNELS 6 Xposition Yposition Zposition Zrotation Xrotation Yrotation
  JOINT Spine
  {
    OFFSET 0 8.597 -4.6522
    CHANNELS 3 Zrotation Xrotation Yrotation
    JOINT Spine1
    {
      OFFSET 0 7.8454 0.4098
      CHANNELS 3 Zrotation Xrotation Yrotation
      JOINT Spine2
      {
        OFFSET 0 9.7078 -2.1609
        CHANNELS 3 Zrotation Xrotation Yrotation
        JOINT Neck
        {
          OFFSET 0 21.8761 -0.4549
          CHANNELS 3 Zrotation Xrotation Yrotation
          JOINT Head
          {
            OFFSET 0 12.3537 3.3602
            CHANNELS 3 Zrotation Xrotation Yrotation
            End Site
            {
              OFFSET 0.0001 18.9506 0.5657
            }
          }
        }
        JOINT LeftShoulder
        {
          OFFSET 2.2086 21.1115 7.2329
          CHANNELS 3 Zrotation Xrotation Yrotation
          JOINT LeftArm
          {
            OFFSET 13.1193 3.0282 -4.8998
            CHANNELS 3 Zrotation Xrotation Yrotation
            JOINT LeftForeArm
            {
              OFFSET 27.4081 -0.0973053 -0.2375
              CHANNELS 3 Zrotation Xrotation Yrotation
              JOINT LeftHand
              {
                OFFSET 22.8641 0.0662994 -0.1369
                CHANNELS 3 Zrotation Xrotation Yrotation
                JOINT LeftHandIndex1
                {
                  OFFSET 8.8614 0.775009 2.4612
                  CHANNELS 3 Zrotation Xrotation Yrotation
                  JOINT LeftHandIndex2
                  {
                    OFFSET 3.3146 -0.808304 0.5841
                    CHANNELS 3 Zrotation Xrotation Yrotation
                    JOINT LeftHandIndex3
                    {
                      OFFSET 2.2628 -0.552002 0.3989
                      CHANNELS 3 Zrotation Xrotation Yrotation
                      End Site
                      {
                        OFFSET 1.6102 -0.4807 0.2612
                      }
                    }
                  }
                }
                JOINT LeftHandMiddle1
                {
                  OFFSET 8.9937 0.895004 0.2143
                  CHANNELS 3 Zrotation Xrotation Yrotation
                  JOINT LeftHandMiddle2
                  {
                    OFFSET 4.0984 0.0113983 -0.0242
                    CHANNELS 3 Zrotation Xrotation Yrotation
                    JOINT LeftHandMiddle3
                    {
                      OFFSET 2.2716 0.00689697 -0.0138001
                      CHANNELS 3 Zrotation Xrotation Yrotation
                      End Site
                      {
                        OFFSET 2.0404 -0.1441 0.0027
                      }
                    }
                  }
                }
                JOINT LeftHandRing1
                {
                  OFFSET 8.5234 0.597198 -2.0164
                  CHANNELS 3 Zrotation Xrotation Yrotation
                  JOINT LeftHandRing2
                  {
                    OFFSET 3.7188 -0.188293 -0.2328
                    CHANNELS 3 Zrotation Xrotation Yrotation
                    JOINT LeftHandRing3
                    {
                      OFFSET 2.1191 -0.106598 -0.1332
                      CHANNELS 3 Zrotation Xrotation Yrotation
                      End Site
                      {
                        OFFSET 1.8737 -0.2304 -0.0886
                      }
                    }
                  }
                }
                JOINT LeftHandPinky1
                {
                  OFFSET 7.9094 -0.601089 -3.4825
                  CHANNELS 3 Zrotation Xrotation Yrotation
                  JOINT LeftHandPinky2
                  {
                    OFFSET 2.2874 -0.477005 -0.6314
                    CHANNELS 3 Zrotation Xrotation Yrotation
                    JOINT LeftHandPinky3
                    {
                      OFFSET 1.6774 -0.349396 -0.4633
                      CHANNELS 3 Zrotation Xrotation Yrotation
                      End Site
                      {
                        OFFSET 1.4888 -0.4091 -0.3416
                      }
                    }
                  }
                }
                JOINT LeftHandThumb1
                {
                  OFFSET 1.833 -1.3875 1.3896
                  CHANNELS 3 Zrotation Xrotation Yrotation
                  JOINT LeftHandThumb2
                  {
                    OFFSET 3.4129 -1.121 2.5732
                    CHANNELS 3 Zrotation Xrotation Yrotation
                    JOINT LeftHandThumb3
                    {
                      OFFSET 2.2474 -0.804199 1.6192
                      CHANNELS 3 Zrotation Xrotation Yrotation
                      End Site
                      {
                        OFFSET 1.6527 -0.5689 1.1317
                      }
                    }
                  }
                }
              }
            }
          }
        }
        JOINT RightShoulder
        {
          OFFSET -2.2086 21.1115 7.2329
          CHANNELS 3 Zrotation Xrotation Yrotation
          JOINT RightArm
          {
            OFFSET -13.1216 3.0287 -4.9007
            CHANNELS 3 Zrotation Xrotation Yrotation
            JOINT RightForeArm
            {
              OFFSET -27.4081 -0.0973053 -0.2375
              CHANNELS 3 Zrotation Xrotation Yrotation
              JOINT RightHand
              {
                OFFSET -22.8641 0.0664063 -0.1369
                CHANNELS 3 Zrotation Xrotation Yrotation
                JOINT RightHandIndex1
                {
                  OFFSET -8.8614 0.774994 2.4612
                  CHANNELS 3 Zrotation Xrotation Yrotation
                  JOINT RightHandIndex2
                  {
                    OFFSET -3.3146 -0.808304 0.5841
                    CHANNELS 3 Zrotation Xrotation Yrotation
                    JOINT RightHandIndex3
                    {
                      OFFSET -2.2628 -0.552002 0.3989
                      CHANNELS 3 Zrotation Xrotation Yrotation
                      End Site
                      {
                        OFFSET -1.6102 -0.4807 0.2612
                      }
                    }
                  }
                }
                JOINT RightHandMiddle1
                {
                  OFFSET -8.9937 0.894989 0.2143
                  CHANNELS 3 Zrotation Xrotation Yrotation
                  JOINT RightHandMiddle2
                  {
                    OFFSET -4.0984 0.0113983 -0.0242
                    CHANNELS 3 Zrotation Xrotation Yrotation
                    JOINT RightHandMiddle3
                    {
                      OFFSET -2.2716 0.00691223 -0.0138001
                      CHANNELS 3 Zrotation Xrotation Yrotation
                      End Site
                      {
                        OFFSET -2.0404 -0.1441 0.0027
                      }
                    }
                  }
                }
                JOINT RightHandRing1
                {
                  OFFSET -8.5234 0.597198 -2.0164
                  CHANNELS 3 Zrotation Xrotation Yrotation
                  JOINT RightHandRing2
                  {
                    OFFSET -3.7188 -0.188309 -0.2328
                    CHANNELS 3 Zrotation Xrotation Yrotation
                    JOINT RightHandRing3
                    {
                      OFFSET -2.1191 -0.106598 -0.1332
                      CHANNELS 3 Zrotation Xrotation Yrotation
                      End Site
                      {
                        OFFSET -1.8737 -0.2304 -0.0886
                      }
                    }
                  }
                }
                JOINT RightHandPinky1
                {
                  OFFSET -7.9094 -0.601105 -3.4825
                  CHANNELS 3 Zrotation Xrotation Yrotation
                  JOINT RightHandPinky2
                  {
                    OFFSET -2.2874 -0.477005 -0.6314
                    CHANNELS 3 Zrotation Xrotation Yrotation
                    JOINT RightHandPinky3
                    {
                      OFFSET -1.6774 -0.349396 -0.4633
                      CHANNELS 3 Zrotation Xrotation Yrotation
                      End Site
                      {
                        OFFSET -1.4888 -0.4091 -0.3416
                      }
                    }
                  }
                }
                JOINT RightHandThumb1
                {
                  OFFSET -1.833 -1.38751 1.3896
                  CHANNELS 3 Zrotation Xrotation Yrotation
                  JOINT RightHandThumb2
                  {
                    OFFSET -3.41299 -1.12099 2.5732
                    CHANNELS 3 Zrotation Xrotation Yrotation
                    JOINT RightHandThumb3
                    {
                      OFFSET -2.24741 -0.804108 1.6192
                      CHANNELS 3 Zrotation Xrotation Yrotation
                      End Site
                      {
                        OFFSET -1.6527 -0.5689 1.1317
                      }
                    }
                  }
                }
              }
            }
          }
        }
      }
    }
  }
  JOINT RightUpLeg
  {
    OFFSET -9.1966 3.8861 -0.7581
    CHANNELS 3 Zrotation Xrotation Yrotation
    JOINT RightLeg
    {
      OFFSET -0.7359 -41.0265 0
      CHANNELS 3 Zrotation Xrotation Yrotation
      JOINT RightFoot
      {
        OFFSET 0 -40.2855 0
        CHANNELS 3 Zrotation Xrotation Yrotation
        JOINT RightToeBase
        {
          OFFSET 0 -5.6122 11.7359
          CHANNELS 3 Zrotation Xrotation Yrotation
          End Site
          {
            OFFSET 0 0 7.8731
          }
        }
      }
    }
  }
  JOINT LeftUpLeg
  {
    OFFSET 9.1965 3.8864 -0.7581
    CHANNELS 3 Zrotation Xrotation Yrotation
    JOINT LeftLeg
    {
      OFFSET 0.7359 -41.0268 0
      CHANNELS 3 Zrotation Xrotation Yrotation
      JOINT LeftFoot
      {
        OFFSET 0 -40.2855 0
        CHANNELS 3 Zrotation Xrotation Yrotation
        JOINT LeftToeBase
        {
          OFFSET 0 -5.6122 11.7359
          CHANNELS 3 Zrotation Xrotation Yrotation
          End Site
          {
            OFFSET 0 0 7.8731
          }
        }
      }
    }
  }
}
MOTION
Frames:	4
Frame Time:	0.0333333
5.84602e-005 68.8428 3.50346 0 0 -0 0 0 -0 0 0 -0 0 0 -0 0 0 -0 0 0 -0 0 0 -0 0 0 -0 0 0 -0 0 0 -0 0 0 -0 0 0 -0 0 0 -0 0 0 -0 -0.0146107 -8.87603e-005 -2.63497e-007 2.99804e-018 -2.42657e-020 -1.42182e-022 0 0 -0 -0.0187562 -0.001176 5.858e-005 5.06224e-018 3.88251e-019 1.21329e-020 0 0 -0 -0.012269 -0.00324817 0.000675346 -1.74678e-018 3.88251e-019 -0 0 0 -0 0 0 -0 0 0 -0 0 0 -0 0 0 -0 0 0 -0 0 0 -0 0 0 -0 0 0 -0 0 0 -0 0 0 -0 0.0149955 -9.10982e-005 2.64101e-007 -9.69331e-018 1.21329e-020 -4.7394e-023 0 0 -0 0.0189956 -0.00119102 -5.96516e-005 -5.41541e-019 0 2.42657e-020 0 0 -0 0.0122698 -0.00324857 -0.000673756 -2.00796e-019 0 -1.94126e-019 0 0 -0 0 0 -0 0 0 -0 3.39842 1.33031 -0.0637918 -5.65207e-008 0.834868 -0.000436188 -3.39935 -2.16518 -0.0642563 -8.89002e-024 -1.18485e-023 -1.48106e-024 -3.39844 1.35642 0.0640283 -3.18788e-007 0.782166 -0.000588827 3.39931 -2.13858 0.0634662 1.1399e-023 0 -0 
2.81162e-005 0.811883 90.064 -180 -80.1203 -180 3.15723e-005 -0.138091 -0.0954406 -0.000166858 -0.276172 -0.190882 -0.000166804 -0.276172 -0.190882 0.00012828 22.8877 -0.000323079 7.41094e-008 9.00526 -1.09212e-008 -8.08078 -0.430726 0.103232 -82.9059 -0.428795 -4.09346 3.55735 -2.97411 -42.6067 -17.3721 0.176084 2.66413 -7.17616e-007 -2.28861e-006 -2.68995e-007 -6.37888e-007 -2.55761e-006 2.01962e-006 -7.17616e-007 -2.28861e-006 -2.68995e-007 -7.17616e-007 -2.28861e-006 -2.68995e-007 -0.0146177 -8.89908e-005 -4.01056e-006 -7.17606e-007 -2.28858e-006 -2.69286e-007 -7.17616e-007 -2.28861e-006 -2.68995e-007 -0.0187598 -0.00118077 6.40284e-005 -7.17607e-007 -2.28857e-006 -2.69362e-007 -7.17616e-007 -2.28861e-006 -2.68995e-007 -0.0122513 -0.00324564 0.000680044 1.20237e-007 -3.51722e-006 1.58522e-007 -7.17616e-007 -2.28861e-006 -2.68995e-007 -6.37888e-007 -2.55761e-006 2.01962e-006 -7.17616e-007 -2.28861e-006 -2.68995e-007 8.15661 -0.212988 -0.180747 82.8625 -0.419177 4.02478 0.252054 0.409076 63.0015 17.3521 0.284387 -2.45276 5.36719e-015 -2.54444e-014 -1.59028e-015 2.78299e-015 -2.54444e-014 -3.18055e-015 3.18055e-015 -2.46493e-014 -0 5.36719e-015 -2.54444e-014 -1.59028e-015 0.0149867 -9.25257e-005 1.02987e-007 2.62198e-006 6.19303e-008 9.77725e-010 5.36719e-015 -2.54444e-014 -1.59028e-015 0.0189872 -0.00119026 -6.25463e-005 -6.75868e-015 7.95139e-016 4.77083e-015 5.36719e-015 -2.54444e-014 -1.59028e-015 0.0122664 -0.00324903 -0.000673369 -3.97569e-016 1.59028e-015 3.18055e-015 5.36719e-015 -2.54444e-014 -1.59028e-015 2.78299e-015 -2.54444e-014 -3.18055e-015 3.18055e-015 -2.46493e-014 -0 -36.5283 -31.6499 -24.9235 -123.394 58.331 128.351 1.15158 11.6701 3.89852 -1.03656e-007 -2.30434e-008 1.05592e-008 36.5093 -31.6494 24.8995 123.393 58.3305 -128.355 -1.16871 11.6705 -3.89288 -1.75873e-007 4.75681e-007 -2.9571e-006 
-4.29736e-007 4.8417 85.554 -180 -85.9956 -180 -0.000237268 -0.0244444 -0.0896846 -0.000512807 -0.0488723 -0.179369 -0.000512795 -0.048893 -0.179369 0.000396915 19.7825 -0.00118099 -5.82732e-008 6.45498 1.2524e-007 -6.19005 -1.19756 0.448295 -79.0713 -0.237546 -3.51597 3.20942 -2.65058 -41.0858 -16.4057 -0.229538 3.28812 7.64198e-007 -3.89043e-007 8.84553e-007 3.32082e-006 -1.40015e-006 9.10199e-007 7.64198e-007 -3.89043e-007 8.84553e-007 7.64198e-007 -3.89043e-007 8.84553e-007 -0.0145804 -9.0767e-005 8.61957e-007 -3.97569e-016 -1.19271e-015 3.18055e-015 7.64198e-007 -3.89043e-007 8.84553e-007 -0.0187215 -0.00117574 6.04555e-005 -2.78299e-015 1.19271e-015 -6.36111e-015 7.64198e-007 -3.89043e-007 8.84553e-007 -0.0122821 -0.00325031 0.000681113 1.98785e-015 3.97569e-016 -6.36111e-015 7.64198e-007 -3.89043e-007 8.84553e-007 3.32082e-006 -1.40015e-006 9.10199e-007 7.64198e-007 -3.89043e-007 8.84553e-007 6.55471 -0.198618 -0.778681 78.9431 -0.184442 3.21239 0.491097 0.893751 60.7163 16.3307 0.267683 -2.30847 1.43659e-006 -6.10795e-007 1.61561e-006 5.31523e-006 7.69762e-007 -3.31249e-006 -1.59028e-015 1.59028e-015 -3.18055e-015 1.43659e-006 -6.10795e-007 1.61561e-006 0.0149666 -9.04374e-005 -3.08017e-006 3.97569e-016 -1.98785e-016 -0 1.43659e-006 -6.10795e-007 1.61561e-006 0.019006 -0.00119143 -5.64691e-005 1.78906e-015 1.19271e-015 -3.18055e-015 1.43659e-006 -6.10795e-007 1.61561e-006 0.0122915 -0.00325337 -0.000681639 -1.98785e-016 2.78299e-015 3.18055e-015 1.43659e-006 -6.10795e-007 1.61561e-006 5.31523e-006 7.69762e-007 -3.31249e-006 -1.59028e-015 1.59028e-015 -3.18055e-015 -34.8548 -30.0868 -24.6169 -114.956 63.1933 121.063 -0.494019 11.121 4.79924 -8.33648e-007 -1.63358e-007 7.84846e-008 34.7907 -30.0773 24.5276 114.957 63.1929 -121.069 0.426653 11.123 -4.76096 -1.76556e-031 3.18055e-015 3.18055e-015 
-3.5776e-005 4.84191 85.5541 -180 -85.9956 -180 -0.000527601 0.0754261 -0.089934 -0.000936874 0.150821 -0.179868 -0.000936841 0.150819 -0.179868 -8.55801e-006 18.1181 2.83875e-005 -6.15071e-008 4.54132 5.71873e-008 -4.84586 -1.9387 0.800974 -80.0589 -0.0862654 -3.19492 2.96443 -2.40213 -42.0202 -16.4537 -0.603764 4.0255 7.95139e-016 0 -0 1.59028e-015 -3.97569e-016 3.18055e-015 2.38542e-015 3.97569e-016 3.18055e-015 7.95139e-016 0 -0 -0.0146249 -8.77541e-005 1.08378e-006 3.18055e-015 0 -0 7.95139e-016 0 -0 -0.0187463 -0.00117457 5.42392e-005 -7.95139e-016 -1.19271e-015 6.36111e-015 7.95139e-016 0 -0 -0.0122694 -0.00324663 0.000682144 -1.19271e-015 0 -0 7.95139e-016 0 -0 1.59028e-015 -3.97569e-016 3.18055e-015 2.38542e-015 3.97569e-016 3.18055e-015 5.49384 -0.185254 -1.35203 79.8491 0.00514485 2.66499 0.695883 1.33565 62.0586 16.3307 0.267689 -2.30847 1.44414e-006 -6.0495e-007 1.63404e-006 1.59028e-015 -3.97569e-016 3.18055e-015 2.86319e-006 5.51444e-007 7.57417e-007 1.44414e-006 -6.0495e-007 1.63404e-006 0.0150266 -9.0951e-005 -1.68767e-006 9.93923e-016 -1.39149e-015 -6.36111e-015 1.44414e-006 -6.0495e-007 1.63404e-006 0.0189781 -0.00118888 -6.19379e-005 -1.2921e-015 -1.19271e-015 -3.18055e-015 1.44414e-006 -6.0495e-007 1.63404e-006 0.01232 -0.00326216 -0.000679718 4.96962e-016 1.59028e-015 -3.18055e-015 1.44414e-006 -6.0495e-007 1.63404e-006 1.59028e-015 -3.97569e-016 3.18055e-015 2.86319e-006 5.51444e-007 7.57417e-007 -36.1725 -30.0918 -26.1781 -114.958 63.1929 121.06 -1.8338 11.3136 5.77111 -1.63524e-007 8.33632e-007 3.37602e-008 36.0635 -30.0766 26.025 114.96 63.1923 -121.066 1.71764 11.3187 -5.70139 4.58009e-007 1.2696e-006 8.85854e-007 
